<svg viewBox="0 0 330 200" xmlns="http://www.w3.org/2000/svg"><g><g><g><g><g><line x1="50" y1="177" x2="45" y2="177" style="visibility: inherit;" fill="rgb(0, 0, 0)" stroke="rgb(204, 204, 204)" stroke-width="1px"></line><line x1="50" y1="154.87499999999997" x2="45" y2="154.87499999999997" style="visibility: inherit;" fill="rgb(0, 0, 0)" stroke="rgb(204, 204, 204)" stroke-width="1px"></line><line x1="50" y1="132.74999999999997" x2="45" y2="132.74999999999997" style="visibility: inherit;" fill="rgb(0, 0, 0)" stroke="rgb(204, 204, 204)" stroke-width="1px"></line><line x1="50" y1="110.62500000000001" x2="45" y2="110.62500000000001" style="visibility: inherit;" fill="rgb(0, 0, 0)" stroke="rgb(204, 204, 204)" stroke-width="1px"></line><line x1="50" y1="88.5" x2="45" y2="88.5" style="visibility: inherit;" fill="rgb(0, 0, 0)" stroke="rgb(204, 204, 204)" stroke-width="1px"></line><line x1="50" y1="66.37499999999999" x2="45" y2="66.37499999999999" style="visibility: inherit;" fill="rgb(0, 0, 0)" stroke="rgb(204, 204, 204)" stroke-width="1px"></line><line x1="50" y1="44.25000000000004" x2="45" y2="44.25000000000004" style="visibility: inherit;" fill="rgb(0, 0, 0)" stroke="rgb(204, 204, 204)" stroke-width="1px"></line><line x1="50" y1="22.12500000000002" x2="45" y2="22.12500000000002" style="visibility: inherit;" fill="rgb(0, 0, 0)" stroke="rgb(204, 204, 204)" stroke-width="1px"></line><line x1="50" y1="0" x2="45" y2="0" style="visibility: inherit;" fill="rgb(0, 0, 0)" stroke="rgb(204, 204, 204)" stroke-width="1px"></line></g><g transform="translate(40, 0)"><text x="0" y="177" dx="0em" dy="0.3em" style="text-anchor: end; visibility: hidden; font-family: Roboto, sans-serif; font-size: 12px; font-weight: 200;" fill="rgb(33, 33, 33)" stroke="none" stroke-width="1px">0.36</text><text x="0" y="154.87499999999997" dx="0em" dy="0.3em" style="text-anchor: end; visibility: inherit; font-family: Roboto, sans-serif; font-size: 12px; font-weight: 200;" fill="rgb(33, 33, 33)" stroke="none" stroke-width="1px">0.38</text><text x="0" y="132.74999999999997" dx="0em" dy="0.3em" style="text-anchor: end; visibility: hidden; font-family: Roboto, sans-serif; font-size: 12px; font-weight: 200;" fill="rgb(33, 33, 33)" stroke="none" stroke-width="1px">0.4</text><text x="0" y="110.62500000000001" dx="0em" dy="0.3em" style="text-anchor: end; visibility: inherit; font-family: Roboto, sans-serif; font-size: 12px; font-weight: 200;" fill="rgb(33, 33, 33)" stroke="none" stroke-width="1px">0.42</text><text x="0" y="88.5" dx="0em" dy="0.3em" style="text-anchor: end; visibility: hidden; font-family: Roboto, sans-serif; font-size: 12px; font-weight: 200;" fill="rgb(33, 33, 33)" stroke="none" stroke-width="1px">0.44</text><text x="0" y="66.37499999999999" dx="0em" dy="0.3em" style="text-anchor: end; visibility: inherit; font-family: Roboto, sans-serif; font-size: 12px; font-weight: 200;" fill="rgb(33, 33, 33)" stroke="none" stroke-width="1px">0.46</text><text x="0" y="44.25000000000004" dx="0em" dy="0.3em" style="text-anchor: end; visibility: hidden; font-family: Roboto, sans-serif; font-size: 12px; font-weight: 200;" fill="rgb(33, 33, 33)" stroke="none" stroke-width="1px">0.48</text><text x="0" y="22.12500000000002" dx="0em" dy="0.3em" style="text-anchor: end; visibility: inherit; font-family: Roboto, sans-serif; font-size: 12px; font-weight: 200;" fill="rgb(33, 33, 33)" stroke="none" stroke-width="1px">0.5</text><text x="0" y="0" dx="0em" dy="0.3em" style="text-anchor: end; visibility: hidden; font-family: Roboto, sans-serif; font-size: 12px; font-weight: 200;" fill="rgb(33, 33, 33)" stroke="none" stroke-width="1px">0.52</text></g><line x1="50" y1="0" x2="50" y2="177" fill="rgb(0, 0, 0)" stroke="rgb(204, 204, 204)" stroke-width="1px"></line></g></g><g transform="translate(50, 0)" clip-path="url(#clip_0)"><clipPath id="clip_0"><rect width="280" height="177"></rect></clipPath><g><g><g><line x1="0" y1="0" x2="0" y2="177" fill="rgb(0, 0, 0)" stroke="rgb(66, 66, 66)" stroke-width="1px" opacity="0.25"></line><line x1="23.333333333333332" y1="0" x2="23.333333333333332" y2="177" fill="rgb(0, 0, 0)" stroke="rgb(66, 66, 66)" stroke-width="1px" opacity="0.25"></line><line x1="46.666666666666664" y1="0" x2="46.666666666666664" y2="177" fill="rgb(0, 0, 0)" stroke="rgb(66, 66, 66)" stroke-width="1px" opacity="0.25"></line><line x1="70" y1="0" x2="70" y2="177" fill="rgb(0, 0, 0)" stroke="rgb(66, 66, 66)" stroke-width="1px" opacity="0.25"></line><line x1="93.33333333333333" y1="0" x2="93.33333333333333" y2="177" fill="rgb(0, 0, 0)" stroke="rgb(66, 66, 66)" stroke-width="1px" opacity="0.25"></line><line x1="116.66666666666667" y1="0" x2="116.66666666666667" y2="177" fill="rgb(0, 0, 0)" stroke="rgb(66, 66, 66)" stroke-width="1px" opacity="0.25"></line><line x1="140" y1="0" x2="140" y2="177" fill="rgb(0, 0, 0)" stroke="rgb(66, 66, 66)" stroke-width="1px" opacity="0.25"></line><line x1="163.33333333333334" y1="0" x2="163.33333333333334" y2="177" fill="rgb(0, 0, 0)" stroke="rgb(66, 66, 66)" stroke-width="1px" opacity="0.25"></line><line x1="186.66666666666666" y1="0" x2="186.66666666666666" y2="177" fill="rgb(0, 0, 0)" stroke="rgb(66, 66, 66)" stroke-width="1px" opacity="0.25"></line><line x1="210" y1="0" x2="210" y2="177" fill="rgb(0, 0, 0)" stroke="rgb(66, 66, 66)" stroke-width="1px" opacity="0.25"></line><line x1="233.33333333333334" y1="0" x2="233.33333333333334" y2="177" fill="rgb(0, 0, 0)" stroke="rgb(66, 66, 66)" stroke-width="1px" opacity="0.25"></line><line x1="256.66666666666663" y1="0" x2="256.66666666666663" y2="177" fill="rgb(0, 0, 0)" stroke="rgb(66, 66, 66)" stroke-width="1px" opacity="0.25"></line><line x1="280" y1="0" x2="280" y2="177" fill="rgb(0, 0, 0)" stroke="rgb(66, 66, 66)" stroke-width="1px" opacity="0.25"></line></g><g><line x1="0" y1="177" x2="280" y2="177" fill="rgb(0, 0, 0)" stroke="rgb(66, 66, 66)" stroke-width="1px" opacity="0.25"></line><line x1="0" y1="154.87499999999997" x2="280" y2="154.87499999999997" fill="rgb(0, 0, 0)" stroke="rgb(66, 66, 66)" stroke-width="1px" opacity="0.25"></line><line x1="0" y1="132.74999999999997" x2="280" y2="132.74999999999997" fill="rgb(0, 0, 0)" stroke="rgb(66, 66, 66)" stroke-width="1px" opacity="0.25"></line><line x1="0" y1="110.62500000000001" x2="280" y2="110.62500000000001" fill="rgb(0, 0, 0)" stroke="rgb(66, 66, 66)" stroke-width="1px" opacity="0.25"></line><line x1="0" y1="88.5" x2="280" y2="88.5" fill="rgb(0, 0, 0)" stroke="rgb(66, 66, 66)" stroke-width="1px" opacity="0.25"></line><line x1="0" y1="66.37499999999999" x2="280" y2="66.37499999999999" fill="rgb(0, 0, 0)" stroke="rgb(66, 66, 66)" stroke-width="1px" opacity="0.25"></line><line x1="0" y1="44.25000000000004" x2="280" y2="44.25000000000004" fill="rgb(0, 0, 0)" stroke="rgb(66, 66, 66)" stroke-width="1px" opacity="0.25"></line><line x1="0" y1="22.12500000000002" x2="280" y2="22.12500000000002" fill="rgb(0, 0, 0)" stroke="rgb(66, 66, 66)" stroke-width="1px" opacity="0.25"></line><line x1="0" y1="0" x2="280" y2="0" fill="rgb(0, 0, 0)" stroke="rgb(66, 66, 66)" stroke-width="1px" opacity="0.25"></line></g></g></g><g><g><line x1="0" y1="575.2499999999999" x2="280" y2="575.2499999999999" fill="rgb(0, 0, 0)" stroke="rgb(153, 153, 153)" stroke-width="1.5px"></line></g></g><g><g><line x1="23.333333333333332" y1="0" x2="23.333333333333332" y2="177" fill="rgb(0, 0, 0)" stroke="rgb(153, 153, 153)" stroke-width="1.5px"></line></g></g><g><g><g><g><g><path stroke="rgb(0, 119, 187)" stroke-width="2px" d="M32.666666666666664,193.5229587084576L35,165.68859185006696L37.333333333333336,130.32016998484613L39.666666666666664,106.76496224977592L42,113.72421200536746L44.33333333333333,97.98443146256169L46.666666666666664,71.32907482871228L49,61.893190395837664L51.33333333333333,55.61587678211425L53.66666666666667,55.88812128972064L56,58.46196307402328L58.333333333333336,45.278512424689275L60.66666666666667,36.985685665413946L63,41.02880965715551L65.33333333333333,32.27628097545232L67.66666666666667,26.362498414363582L70,28.041733890258428L72.33333333333334,25.302282957852732L74.66666666666667,22.617483341060787L77,21.175747123298923L79.33333333333333,21.615251283252018L81.66666666666667,20.637548891755202L84,20.112522773863972L86.33333333333334,19.830583767687678L88.66666666666666,19.67918252688791L91,19.597880062169093L93.33333333333333,19.554220639074014L95.66666666666667,20.744491485904184L98,20.169950973100217L100.33333333333333,17.433960279249476L102.66666666666666,15.964733277935412L105,15.175758378600054L107.33333333333334,14.752078857763683L109.66666666666667,14.524562955105308L112,14.402386915386732L114.33333333333333,14.336778382060277L116.66666666666667,16.72900903706167L119,15.58617446139562L121.33333333333334,16.18618824839456L123.66666666666666,15.294679697885307L126,14.815939606262747L128.33333333333331,14.558856177061747L130.66666666666666,14.420802375580841L133,14.346667484185648L135.33333333333334,14.30685704750638L137.66666666666666,14.285478843009654L140,14.27399874719481L142.33333333333331,14.267833935742319L144.66666666666669,14.264523431992398L147,14.26274569147859L149.33333333333334,14.26179104482268L151.66666666666666,14.26127839956845L154,14.261003109067005L156.33333333333334,14.260855278067739L158.66666666666666,14.260775892821078L161,14.260733262943578L163.33333333333334,14.260710370699487L165.66666666666666,14.260698077564369L168,14.26069147615082L170.33333333333331,14.260687931191747L172.66666666666669,14.26068602754869L175,14.260685005292407L177.33333333333331,14.260684456340732L179.66666666666669,14.260684161553664L182,14.260684003253001L184.33333333333334,14.260683918245576L186.66666666666666,14.260683872596562L189,14.260683848083106L191.33333333333334,14.260683834919309L193.66666666666666,14.260683827850372L196,14.260683824054418L198.33333333333334,14.260683822015869L200.66666666666666,14.260683820921193L203,14.260683820333393L205.33333333333331,14.26068382001774L207.66666666666669,14.26068381984825L210,14.260683819757247L212.33333333333331,14.260683819708355L214.66666666666669,14.260683819682082L217,14.260683819667953L219.33333333333334,14.260683819660466L221.66666666666666,14.260683819656418L224,14.260683819654197L226.33333333333334,14.260683819652979L228.66666666666666,14.26068381965235L231,14.260683819651996L233.33333333333334,14.26068381965186L235.66666666666666,14.26068381965174L238,14.26068381965174L240.33333333333331,14.26068381965174L242.66666666666669,14.26068381965174L245,14.26068381965174L247.33333333333331,14.26068381965174L249.66666666666669,14.26068381965174L252,14.26068381965174L254.33333333333334,14.26068381965174" style="fill: none;" fill="none"></path></g><g><path stroke="rgb(255, 112, 67)" stroke-width="2px" d="M32.666666666666664,199.17801762182043L35,154.76488736816646L37.333333333333336,127.36913385320722L39.666666666666664,106.17245924103206L42,90.92580910350551L44.33333333333333,79.42635665934523L46.666666666666664,68.39582018243684L49,60.35053678770272L51.33333333333333,53.59954406519442L53.66666666666667,46.93369973315505L56,42.1382186901602L58.333333333333336,39.867510231325795L60.66666666666667,37.12741536438492L63,34.43940149472191L65.33333333333333,33.604277038779124L67.66666666666667,31.635050915338635L70,29.66511031283835L72.33333333333334,28.91141723905941L74.66666666666667,28.20252279859531L77,27.213553747549515L79.33333333333333,26.682477599850774L81.66666666666667,26.397289775643834L84,25.939982230254L86.33333333333334,25.390261663675805L88.66666666666666,25.0950617301799L91,24.936539368994406L93.33333333333333,24.851412861932367L95.66666666666667,24.80569992789791L98,24.476990394454518L100.33333333333333,24.300473375282603L102.66666666666666,24.205683736070124L105,24.154781699837002L107.33333333333334,24.1274473063866L109.66666666666667,24.112768737105792L112,24.104886345402505L114.33333333333333,24.100653501058094L116.66666666666667,24.098380463645103L119,24.09715984255431L121.33333333333334,24.096504369028718L123.66666666666666,24.0961523797453L126,24.095963361500267L128.33333333333331,24.095861858702666L130.66666666666666,24.095807351700373L133,24.095778081440105L135.33333333333334,24.095762363310275L137.66666666666666,24.095753922674643L140,24.095749390053207L142.33333333333331,24.09574695603552L144.66666666666669,24.09574564896809L147,24.095744947072856L149.33333333333334,24.095744570155084L151.66666666666666,24.095744367750207L154,24.09574425905879L156.33333333333334,24.09574420069155L158.66666666666666,24.095744169348347L161,24.095744152516936L163.33333333333334,24.09574414347854L165.66666666666666,24.095744138624873L168,24.09574413601855L170.33333333333331,24.09574413461891L172.66666666666669,24.095744133867264L175,24.09574413346369L177.33333333333331,24.095744133246903L179.66666666666669,24.09574413313061L182,24.095744133068077L184.33333333333334,24.095744133034554L186.66666666666666,24.095744133016495L189,24.095744133006807L191.33333333333334,24.095744133001638L193.66666666666666,24.09574413299881L196,24.095744132997336L198.33333333333334,24.09574413299649L200.66666666666666,24.095744132996117L203,24.09574413299586L205.33333333333331,24.095744132995744L207.66666666666669,24.095744132995627L210,24.095744132995627L212.33333333333331,24.095744132995627L214.66666666666669,24.095744132995627L217,24.095744132995627L219.33333333333334,24.095744132995627L221.66666666666666,24.095744132995627L224,24.095744132995627L226.33333333333334,24.095744132995627L228.66666666666666,24.095744132995627L231,24.095744132995627L233.33333333333334,24.095744132995627L235.66666666666666,24.095744132995627L238,24.095744132995627L240.33333333333331,24.095744132995627L242.66666666666669,24.095744132995627L245,24.095744132995627L247.33333333333331,24.095744132995627L249.66666666666669,24.095744132995627L252,24.095744132995627L254.33333333333334,24.095744132995627" style="fill: none;" fill="none"></path></g></g></g></g><g opacity="0.2"><g><g><g><path stroke="rgb(0, 119, 187)" stroke-width="2px" d="M28,242.32641351968047L30.333333333333336,126.98282381147146L32.666666666666664,158.4401544705033L35,134.84713999181986L37.333333333333336,90.28259371966124L39.666666666666664,79.79679485410452L42,121.7399243786931L44.33333333333333,79.79679485410452L46.666666666666664,40.475115045905135L49,50.96091391146183L51.33333333333333,48.33946419507267L53.66666666666667,56.20378037542105L56,61.446679808199406L58.333333333333336,29.98934914916756L60.66666666666667,27.36789943277838L63,45.71801447868349L65.33333333333333,22.12500000000002L67.66666666666667,19.503583252429983L70,29.98934914916756L72.33333333333334,22.12500000000002L74.66666666666667,19.503583252429983L77,19.503583252429983L79.33333333333333,22.12500000000002L81.66666666666667,19.503583252429983L84,19.503583252429983L86.33333333333334,19.503583252429983L88.66666666666666,19.503583252429983L91,19.503583252429983L93.33333333333333,19.503583252429983L95.66666666666667,22.12500000000002L98,19.503583252429983L100.33333333333333,14.260683819651623L102.66666666666666,14.260683819651623L105,14.260683819651623L107.33333333333334,14.260683819651623L109.66666666666667,14.260683819651623L112,14.260683819651623L114.33333333333333,14.260683819651623L116.66666666666667,19.503583252429983L119,14.260683819651623L121.33333333333334,16.882100567221663L123.66666666666666,14.260683819651623L126,14.260683819651623L128.33333333333331,14.260683819651623L130.66666666666666,14.260683819651623L133,14.260683819651623L135.33333333333334,14.260683819651623L137.66666666666666,14.260683819651623L140,14.260683819651623L142.33333333333331,14.260683819651623L144.66666666666669,14.260683819651623L147,14.260683819651623L149.33333333333334,14.260683819651623L151.66666666666666,14.260683819651623L154,14.260683819651623L156.33333333333334,14.260683819651623L158.66666666666666,14.260683819651623L161,14.260683819651623L163.33333333333334,14.260683819651623L165.66666666666666,14.260683819651623L168,14.260683819651623L170.33333333333331,14.260683819651623L172.66666666666669,14.260683819651623L175,14.260683819651623L177.33333333333331,14.260683819651623L179.66666666666669,14.260683819651623L182,14.260683819651623L184.33333333333334,14.260683819651623L186.66666666666666,14.260683819651623L189,14.260683819651623L191.33333333333334,14.260683819651623L193.66666666666666,14.260683819651623L196,14.260683819651623L198.33333333333334,14.260683819651623L200.66666666666666,14.260683819651623L203,14.260683819651623L205.33333333333331,14.260683819651623L207.66666666666669,14.260683819651623L210,14.260683819651623L212.33333333333331,14.260683819651623L214.66666666666669,14.260683819651623L217,14.260683819651623L219.33333333333334,14.260683819651623L221.66666666666666,14.260683819651623L224,14.260683819651623L226.33333333333334,14.260683819651623L228.66666666666666,14.260683819651623L231,14.260683819651623L233.33333333333334,14.260683819651623L235.66666666666666,14.260683819651623L238,14.260683819651623L240.33333333333331,14.260683819651623L242.66666666666669,14.260683819651623L245,14.260683819651623L247.33333333333331,14.260683819651623L249.66666666666669,14.260683819651623L252,14.260683819651623L254.33333333333334,14.260683819651623" style="fill: none;" fill="none"></path></g><g><path stroke="rgb(255, 112, 67)" stroke-width="2px" d="M28,302.6290047504007L30.333333333333336,170.5884719789028L32.666666666666664,125.9180628284812L35,105.55358590185642L37.333333333333336,96.35673598945141L39.666666666666664,81.90455739945173L42,73.36461120843887L44.33333333333333,66.13850542902946L46.666666666666664,55.627815105021L49,51.02939014881849L51.33333333333333,45.77406147122385L53.66666666666667,39.2048594132066L56,36.57721155881884L58.333333333333336,37.23411528021099L60.66666666666667,33.94953073561194L63,31.321849912405035L65.33333333333333,32.635690324008486L67.66666666666667,29.35110577940943L70,27.380328677594683L72.33333333333334,28.03726536780598L74.66666666666667,27.380328677594683L77,26.066521234810374L79.33333333333333,26.066521234810374L81.66666666666667,26.066521234810374L84,25.409584544599078L86.33333333333334,24.752680823206923L88.66666666666666,24.752680823206923L91,24.752680823206923L93.33333333333333,24.752680823206923L95.66666666666667,24.752680823206923L98,24.095744132995627L100.33333333333333,24.095744132995627L102.66666666666666,24.095744132995627L105,24.095744132995627L107.33333333333334,24.095744132995627L109.66666666666667,24.095744132995627L112,24.095744132995627L114.33333333333333,24.095744132995627L116.66666666666667,24.095744132995627L119,24.095744132995627L121.33333333333334,24.095744132995627L123.66666666666666,24.095744132995627L126,24.095744132995627L128.33333333333331,24.095744132995627L130.66666666666666,24.095744132995627L133,24.095744132995627L135.33333333333334,24.095744132995627L137.66666666666666,24.095744132995627L140,24.095744132995627L142.33333333333331,24.095744132995627L144.66666666666669,24.095744132995627L147,24.095744132995627L149.33333333333334,24.095744132995627L151.66666666666666,24.095744132995627L154,24.095744132995627L156.33333333333334,24.095744132995627L158.66666666666666,24.095744132995627L161,24.095744132995627L163.33333333333334,24.095744132995627L165.66666666666666,24.095744132995627L168,24.095744132995627L170.33333333333331,24.095744132995627L172.66666666666669,24.095744132995627L175,24.095744132995627L177.33333333333331,24.095744132995627L179.66666666666669,24.095744132995627L182,24.095744132995627L184.33333333333334,24.095744132995627L186.66666666666666,24.095744132995627L189,24.095744132995627L191.33333333333334,24.095744132995627L193.66666666666666,24.095744132995627L196,24.095744132995627L198.33333333333334,24.095744132995627L200.66666666666666,24.095744132995627L203,24.095744132995627L205.33333333333331,24.095744132995627L207.66666666666669,24.095744132995627L210,24.095744132995627L212.33333333333331,24.095744132995627L214.66666666666669,24.095744132995627L217,24.095744132995627L219.33333333333334,24.095744132995627L221.66666666666666,24.095744132995627L224,24.095744132995627L226.33333333333334,24.095744132995627L228.66666666666666,24.095744132995627L231,24.095744132995627L233.33333333333334,24.095744132995627L235.66666666666666,24.095744132995627L238,24.095744132995627L240.33333333333331,24.095744132995627L242.66666666666669,24.095744132995627L245,24.095744132995627L247.33333333333331,24.095744132995627L249.66666666666669,24.095744132995627L252,24.095744132995627L254.33333333333334,24.095744132995627" style="fill: none;" fill="none"></path></g></g></g></g></g></g><g transform="translate(50, 177)" clip-path="url(#clip_1)"><clipPath id="clip_1"><rect width="280" height="23"></rect></clipPath><g><g><line x1="0" y1="0" x2="0" y2="5" style="visibility: inherit;" fill="rgb(0, 0, 0)" stroke="rgb(204, 204, 204)" stroke-width="1px"></line><line x1="23.333333333333332" y1="0" x2="23.333333333333332" y2="5" style="visibility: inherit;" fill="rgb(0, 0, 0)" stroke="rgb(204, 204, 204)" stroke-width="1px"></line><line x1="46.666666666666664" y1="0" x2="46.666666666666664" y2="5" style="visibility: inherit;" fill="rgb(0, 0, 0)" stroke="rgb(204, 204, 204)" stroke-width="1px"></line><line x1="70" y1="0" x2="70" y2="5" style="visibility: inherit;" fill="rgb(0, 0, 0)" stroke="rgb(204, 204, 204)" stroke-width="1px"></line><line x1="93.33333333333333" y1="0" x2="93.33333333333333" y2="5" style="visibility: inherit;" fill="rgb(0, 0, 0)" stroke="rgb(204, 204, 204)" stroke-width="1px"></line><line x1="116.66666666666667" y1="0" x2="116.66666666666667" y2="5" style="visibility: inherit;" fill="rgb(0, 0, 0)" stroke="rgb(204, 204, 204)" stroke-width="1px"></line><line x1="140" y1="0" x2="140" y2="5" style="visibility: inherit;" fill="rgb(0, 0, 0)" stroke="rgb(204, 204, 204)" stroke-width="1px"></line><line x1="163.33333333333334" y1="0" x2="163.33333333333334" y2="5" style="visibility: inherit;" fill="rgb(0, 0, 0)" stroke="rgb(204, 204, 204)" stroke-width="1px"></line><line x1="186.66666666666666" y1="0" x2="186.66666666666666" y2="5" style="visibility: inherit;" fill="rgb(0, 0, 0)" stroke="rgb(204, 204, 204)" stroke-width="1px"></line><line x1="210" y1="0" x2="210" y2="5" style="visibility: inherit;" fill="rgb(0, 0, 0)" stroke="rgb(204, 204, 204)" stroke-width="1px"></line><line x1="233.33333333333334" y1="0" x2="233.33333333333334" y2="5" style="visibility: inherit;" fill="rgb(0, 0, 0)" stroke="rgb(204, 204, 204)" stroke-width="1px"></line><line x1="256.66666666666663" y1="0" x2="256.66666666666663" y2="5" style="visibility: inherit;" fill="rgb(0, 0, 0)" stroke="rgb(204, 204, 204)" stroke-width="1px"></line><line x1="280" y1="0" x2="280" y2="5" style="visibility: inherit;" fill="rgb(0, 0, 0)" stroke="rgb(204, 204, 204)" stroke-width="1px"></line></g><g transform="translate(0, 8)"><text x="0" y="0" dx="0em" dy="0.95em" style="text-anchor: middle; visibility: hidden; font-family: Roboto, sans-serif; font-size: 12px; font-weight: 200;" fill="rgb(33, 33, 33)" stroke="none" stroke-width="1px">-10</text><text x="23.333333333333332" y="0" dx="0em" dy="0.95em" style="text-anchor: middle; visibility: inherit; font-family: Roboto, sans-serif; font-size: 12px; font-weight: 200;" fill="rgb(33, 33, 33)" stroke="none" stroke-width="1px">0</text><text x="46.666666666666664" y="0" dx="0em" dy="0.95em" style="text-anchor: middle; visibility: inherit; font-family: Roboto, sans-serif; font-size: 12px; font-weight: 200;" fill="rgb(33, 33, 33)" stroke="none" stroke-width="1px">10</text><text x="70" y="0" dx="0em" dy="0.95em" style="text-anchor: middle; visibility: inherit; font-family: Roboto, sans-serif; font-size: 12px; font-weight: 200;" fill="rgb(33, 33, 33)" stroke="none" stroke-width="1px">20</text><text x="93.33333333333333" y="0" dx="0em" dy="0.95em" style="text-anchor: middle; visibility: inherit; font-family: Roboto, sans-serif; font-size: 12px; font-weight: 200;" fill="rgb(33, 33, 33)" stroke="none" stroke-width="1px">30</text><text x="116.66666666666667" y="0" dx="0em" dy="0.95em" style="text-anchor: middle; visibility: inherit; font-family: Roboto, sans-serif; font-size: 12px; font-weight: 200;" fill="rgb(33, 33, 33)" stroke="none" stroke-width="1px">40</text><text x="140" y="0" dx="0em" dy="0.95em" style="text-anchor: middle; visibility: inherit; font-family: Roboto, sans-serif; font-size: 12px; font-weight: 200;" fill="rgb(33, 33, 33)" stroke="none" stroke-width="1px">50</text><text x="163.33333333333334" y="0" dx="0em" dy="0.95em" style="text-anchor: middle; visibility: inherit; font-family: Roboto, sans-serif; font-size: 12px; font-weight: 200;" fill="rgb(33, 33, 33)" stroke="none" stroke-width="1px">60</text><text x="186.66666666666666" y="0" dx="0em" dy="0.95em" style="text-anchor: middle; visibility: inherit; font-family: Roboto, sans-serif; font-size: 12px; font-weight: 200;" fill="rgb(33, 33, 33)" stroke="none" stroke-width="1px">70</text><text x="210" y="0" dx="0em" dy="0.95em" style="text-anchor: middle; visibility: inherit; font-family: Roboto, sans-serif; font-size: 12px; font-weight: 200;" fill="rgb(33, 33, 33)" stroke="none" stroke-width="1px">80</text><text x="233.33333333333334" y="0" dx="0em" dy="0.95em" style="text-anchor: middle; visibility: inherit; font-family: Roboto, sans-serif; font-size: 12px; font-weight: 200;" fill="rgb(33, 33, 33)" stroke="none" stroke-width="1px">90</text><text x="256.66666666666663" y="0" dx="0em" dy="0.95em" style="text-anchor: middle; visibility: inherit; font-family: Roboto, sans-serif; font-size: 12px; font-weight: 200;" fill="rgb(33, 33, 33)" stroke="none" stroke-width="1px">100</text><text x="280" y="0" dx="0em" dy="0.95em" style="text-anchor: middle; visibility: hidden; font-family: Roboto, sans-serif; font-size: 12px; font-weight: 200;" fill="rgb(33, 33, 33)" stroke="none" stroke-width="1px">110</text></g><line x1="0" y1="0" x2="280" y2="0" fill="rgb(0, 0, 0)" stroke="rgb(204, 204, 204)" stroke-width="1px"></line></g></g></g></g></svg>