<svg viewBox="0 0 330 200" xmlns="http://www.w3.org/2000/svg"><g><g><g><g><g><line x1="60" y1="177" x2="55" y2="177" style="visibility: inherit;" fill="rgb(0, 0, 0)" stroke="rgb(204, 204, 204)" stroke-width="1px"></line><line x1="60" y1="164.35714285714286" x2="55" y2="164.35714285714286" style="visibility: inherit;" fill="rgb(0, 0, 0)" stroke="rgb(204, 204, 204)" stroke-width="1px"></line><line x1="60" y1="151.71428571428572" x2="55" y2="151.71428571428572" style="visibility: inherit;" fill="rgb(0, 0, 0)" stroke="rgb(204, 204, 204)" stroke-width="1px"></line><line x1="60" y1="139.07142857142858" x2="55" y2="139.07142857142858" style="visibility: inherit;" fill="rgb(0, 0, 0)" stroke="rgb(204, 204, 204)" stroke-width="1px"></line><line x1="60" y1="126.42857142857143" x2="55" y2="126.42857142857143" style="visibility: inherit;" fill="rgb(0, 0, 0)" stroke="rgb(204, 204, 204)" stroke-width="1px"></line><line x1="60" y1="113.78571428571428" x2="55" y2="113.78571428571428" style="visibility: inherit;" fill="rgb(0, 0, 0)" stroke="rgb(204, 204, 204)" stroke-width="1px"></line><line x1="60" y1="101.14285714285714" x2="55" y2="101.14285714285714" style="visibility: inherit;" fill="rgb(0, 0, 0)" stroke="rgb(204, 204, 204)" stroke-width="1px"></line><line x1="60" y1="88.50000000000001" x2="55" y2="88.50000000000001" style="visibility: inherit;" fill="rgb(0, 0, 0)" stroke="rgb(204, 204, 204)" stroke-width="1px"></line><line x1="60" y1="75.85714285714286" x2="55" y2="75.85714285714286" style="visibility: inherit;" fill="rgb(0, 0, 0)" stroke="rgb(204, 204, 204)" stroke-width="1px"></line><line x1="60" y1="63.21428571428572" x2="55" y2="63.21428571428572" style="visibility: inherit;" fill="rgb(0, 0, 0)" stroke="rgb(204, 204, 204)" stroke-width="1px"></line><line x1="60" y1="50.57142857142859" x2="55" y2="50.57142857142859" style="visibility: inherit;" fill="rgb(0, 0, 0)" stroke="rgb(204, 204, 204)" stroke-width="1px"></line><line x1="60" y1="37.92857142857143" x2="55" y2="37.92857142857143" style="visibility: inherit;" fill="rgb(0, 0, 0)" stroke="rgb(204, 204, 204)" stroke-width="1px"></line><line x1="60" y1="25.285714285714313" x2="55" y2="25.285714285714313" style="visibility: inherit;" fill="rgb(0, 0, 0)" stroke="rgb(204, 204, 204)" stroke-width="1px"></line><line x1="60" y1="12.642857142857157" x2="55" y2="12.642857142857157" style="visibility: inherit;" fill="rgb(0, 0, 0)" stroke="rgb(204, 204, 204)" stroke-width="1px"></line><line x1="60" y1="0" x2="55" y2="0" style="visibility: inherit;" fill="rgb(0, 0, 0)" stroke="rgb(204, 204, 204)" stroke-width="1px"></line></g><g transform="translate(50, 0)"><text x="0" y="177" dx="0em" dy="0.3em" style="text-anchor: end; visibility: hidden; font-family: Roboto, sans-serif; font-size: 12px; font-weight: 200;" fill="rgb(33, 33, 33)" stroke="none" stroke-width="1px">-0.02</text><text x="0" y="164.35714285714286" dx="0em" dy="0.3em" style="text-anchor: end; visibility: inherit; font-family: Roboto, sans-serif; font-size: 12px; font-weight: 200;" fill="rgb(33, 33, 33)" stroke="none" stroke-width="1px">0</text><text x="0" y="151.71428571428572" dx="0em" dy="0.3em" style="text-anchor: end; visibility: hidden; font-family: Roboto, sans-serif; font-size: 12px; font-weight: 200;" fill="rgb(33, 33, 33)" stroke="none" stroke-width="1px">0.02</text><text x="0" y="139.07142857142858" dx="0em" dy="0.3em" style="text-anchor: end; visibility: inherit; font-family: Roboto, sans-serif; font-size: 12px; font-weight: 200;" fill="rgb(33, 33, 33)" stroke="none" stroke-width="1px">0.04</text><text x="0" y="126.42857142857143" dx="0em" dy="0.3em" style="text-anchor: end; visibility: hidden; font-family: Roboto, sans-serif; font-size: 12px; font-weight: 200;" fill="rgb(33, 33, 33)" stroke="none" stroke-width="1px">0.06</text><text x="0" y="113.78571428571428" dx="0em" dy="0.3em" style="text-anchor: end; visibility: inherit; font-family: Roboto, sans-serif; font-size: 12px; font-weight: 200;" fill="rgb(33, 33, 33)" stroke="none" stroke-width="1px">0.08</text><text x="0" y="101.14285714285714" dx="0em" dy="0.3em" style="text-anchor: end; visibility: hidden; font-family: Roboto, sans-serif; font-size: 12px; font-weight: 200;" fill="rgb(33, 33, 33)" stroke="none" stroke-width="1px">0.1</text><text x="0" y="88.50000000000001" dx="0em" dy="0.3em" style="text-anchor: end; visibility: inherit; font-family: Roboto, sans-serif; font-size: 12px; font-weight: 200;" fill="rgb(33, 33, 33)" stroke="none" stroke-width="1px">0.12</text><text x="0" y="75.85714285714286" dx="0em" dy="0.3em" style="text-anchor: end; visibility: hidden; font-family: Roboto, sans-serif; font-size: 12px; font-weight: 200;" fill="rgb(33, 33, 33)" stroke="none" stroke-width="1px">0.14</text><text x="0" y="63.21428571428572" dx="0em" dy="0.3em" style="text-anchor: end; visibility: inherit; font-family: Roboto, sans-serif; font-size: 12px; font-weight: 200;" fill="rgb(33, 33, 33)" stroke="none" stroke-width="1px">0.16</text><text x="0" y="50.57142857142859" dx="0em" dy="0.3em" style="text-anchor: end; visibility: hidden; font-family: Roboto, sans-serif; font-size: 12px; font-weight: 200;" fill="rgb(33, 33, 33)" stroke="none" stroke-width="1px">0.18</text><text x="0" y="37.92857142857143" dx="0em" dy="0.3em" style="text-anchor: end; visibility: inherit; font-family: Roboto, sans-serif; font-size: 12px; font-weight: 200;" fill="rgb(33, 33, 33)" stroke="none" stroke-width="1px">0.2</text><text x="0" y="25.285714285714313" dx="0em" dy="0.3em" style="text-anchor: end; visibility: hidden; font-family: Roboto, sans-serif; font-size: 12px; font-weight: 200;" fill="rgb(33, 33, 33)" stroke="none" stroke-width="1px">0.22</text><text x="0" y="12.642857142857157" dx="0em" dy="0.3em" style="text-anchor: end; visibility: inherit; font-family: Roboto, sans-serif; font-size: 12px; font-weight: 200;" fill="rgb(33, 33, 33)" stroke="none" stroke-width="1px">0.24</text><text x="0" y="0" dx="0em" dy="0.3em" style="text-anchor: end; visibility: hidden; font-family: Roboto, sans-serif; font-size: 12px; font-weight: 200;" fill="rgb(33, 33, 33)" stroke="none" stroke-width="1px">0.26</text></g><line x1="60" y1="0" x2="60" y2="177" fill="rgb(0, 0, 0)" stroke="rgb(204, 204, 204)" stroke-width="1px"></line></g></g><g transform="translate(60, 0)" clip-path="url(#clip_0)"><clipPath id="clip_0"><rect width="270" height="177"></rect></clipPath><g><g><g><line x1="0" y1="0" x2="0" y2="177" fill="rgb(0, 0, 0)" stroke="rgb(66, 66, 66)" stroke-width="1px" opacity="0.25"></line><line x1="22.5" y1="0" x2="22.5" y2="177" fill="rgb(0, 0, 0)" stroke="rgb(66, 66, 66)" stroke-width="1px" opacity="0.25"></line><line x1="45" y1="0" x2="45" y2="177" fill="rgb(0, 0, 0)" stroke="rgb(66, 66, 66)" stroke-width="1px" opacity="0.25"></line><line x1="67.5" y1="0" x2="67.5" y2="177" fill="rgb(0, 0, 0)" stroke="rgb(66, 66, 66)" stroke-width="1px" opacity="0.25"></line><line x1="90" y1="0" x2="90" y2="177" fill="rgb(0, 0, 0)" stroke="rgb(66, 66, 66)" stroke-width="1px" opacity="0.25"></line><line x1="112.5" y1="0" x2="112.5" y2="177" fill="rgb(0, 0, 0)" stroke="rgb(66, 66, 66)" stroke-width="1px" opacity="0.25"></line><line x1="135" y1="0" x2="135" y2="177" fill="rgb(0, 0, 0)" stroke="rgb(66, 66, 66)" stroke-width="1px" opacity="0.25"></line><line x1="157.5" y1="0" x2="157.5" y2="177" fill="rgb(0, 0, 0)" stroke="rgb(66, 66, 66)" stroke-width="1px" opacity="0.25"></line><line x1="180" y1="0" x2="180" y2="177" fill="rgb(0, 0, 0)" stroke="rgb(66, 66, 66)" stroke-width="1px" opacity="0.25"></line><line x1="202.5" y1="0" x2="202.5" y2="177" fill="rgb(0, 0, 0)" stroke="rgb(66, 66, 66)" stroke-width="1px" opacity="0.25"></line><line x1="225" y1="0" x2="225" y2="177" fill="rgb(0, 0, 0)" stroke="rgb(66, 66, 66)" stroke-width="1px" opacity="0.25"></line><line x1="247.5" y1="0" x2="247.5" y2="177" fill="rgb(0, 0, 0)" stroke="rgb(66, 66, 66)" stroke-width="1px" opacity="0.25"></line><line x1="270" y1="0" x2="270" y2="177" fill="rgb(0, 0, 0)" stroke="rgb(66, 66, 66)" stroke-width="1px" opacity="0.25"></line></g><g><line x1="0" y1="177" x2="270" y2="177" fill="rgb(0, 0, 0)" stroke="rgb(66, 66, 66)" stroke-width="1px" opacity="0.25"></line><line x1="0" y1="164.35714285714286" x2="270" y2="164.35714285714286" fill="rgb(0, 0, 0)" stroke="rgb(66, 66, 66)" stroke-width="1px" opacity="0.25"></line><line x1="0" y1="151.71428571428572" x2="270" y2="151.71428571428572" fill="rgb(0, 0, 0)" stroke="rgb(66, 66, 66)" stroke-width="1px" opacity="0.25"></line><line x1="0" y1="139.07142857142858" x2="270" y2="139.07142857142858" fill="rgb(0, 0, 0)" stroke="rgb(66, 66, 66)" stroke-width="1px" opacity="0.25"></line><line x1="0" y1="126.42857142857143" x2="270" y2="126.42857142857143" fill="rgb(0, 0, 0)" stroke="rgb(66, 66, 66)" stroke-width="1px" opacity="0.25"></line><line x1="0" y1="113.78571428571428" x2="270" y2="113.78571428571428" fill="rgb(0, 0, 0)" stroke="rgb(66, 66, 66)" stroke-width="1px" opacity="0.25"></line><line x1="0" y1="101.14285714285714" x2="270" y2="101.14285714285714" fill="rgb(0, 0, 0)" stroke="rgb(66, 66, 66)" stroke-width="1px" opacity="0.25"></line><line x1="0" y1="88.50000000000001" x2="270" y2="88.50000000000001" fill="rgb(0, 0, 0)" stroke="rgb(66, 66, 66)" stroke-width="1px" opacity="0.25"></line><line x1="0" y1="75.85714285714286" x2="270" y2="75.85714285714286" fill="rgb(0, 0, 0)" stroke="rgb(66, 66, 66)" stroke-width="1px" opacity="0.25"></line><line x1="0" y1="63.21428571428572" x2="270" y2="63.21428571428572" fill="rgb(0, 0, 0)" stroke="rgb(66, 66, 66)" stroke-width="1px" opacity="0.25"></line><line x1="0" y1="50.57142857142859" x2="270" y2="50.57142857142859" fill="rgb(0, 0, 0)" stroke="rgb(66, 66, 66)" stroke-width="1px" opacity="0.25"></line><line x1="0" y1="37.92857142857143" x2="270" y2="37.92857142857143" fill="rgb(0, 0, 0)" stroke="rgb(66, 66, 66)" stroke-width="1px" opacity="0.25"></line><line x1="0" y1="25.285714285714313" x2="270" y2="25.285714285714313" fill="rgb(0, 0, 0)" stroke="rgb(66, 66, 66)" stroke-width="1px" opacity="0.25"></line><line x1="0" y1="12.642857142857157" x2="270" y2="12.642857142857157" fill="rgb(0, 0, 0)" stroke="rgb(66, 66, 66)" stroke-width="1px" opacity="0.25"></line><line x1="0" y1="0" x2="270" y2="0" fill="rgb(0, 0, 0)" stroke="rgb(66, 66, 66)" stroke-width="1px" opacity="0.25"></line></g></g></g><g><g><line x1="0" y1="164.35714285714286" x2="270" y2="164.35714285714286" fill="rgb(0, 0, 0)" stroke="rgb(153, 153, 153)" stroke-width="1.5px"></line></g></g><g><g><line x1="22.5" y1="0" x2="22.5" y2="177" fill="rgb(0, 0, 0)" stroke="rgb(153, 153, 153)" stroke-width="1.5px"></line></g></g><g><g><g><g><g><path stroke="rgb(0, 119, 187)" stroke-width="2px" d="M31.5,-2.488086371687258L33.75,19.382868650890256L36,51.6604490479903L38.25,72.28753729381894L40.5,73.44227856801994L42.75,89.76964962990904L45,100.83064785404193L47.25,106.08658070143426L49.5,113.36398934169068L51.75,116.27967655021835L54,117.28234585770844L56.25,123.02094363561727L58.5,127.13638417622984L60.75,129.33472875385166L63,132.0339477488434L65.25,133.38037900426474L67.5,134.83691404182483L69.75,135.84339506133938L72,132.43818858620966L74.25,135.89996975047987L76.5,137.66386789129152L78.75,139.56002444223387L81,140.84021992628925L83.25,141.94478360556445L85.5,143.00324614917392L87.75,143.93381246127382L90,144.908812731992L92.25,143.31925386406874L94.5,145.26232827734592L96.75,146.09243042188865L99,146.6343167731793L101.25,147.7105614007682L103.5,148.36677108795922L105.75,148.82676322865774L108,148.48177781247315L110.25,148.75246224538677L112.5,148.02514688478783L114.75,149.2143796045396L117,147.7618085598662L119.25,149.6508249567324L121.5,150.53891359117677L123.75,149.82007689247803L126,151.17267516984182L128.25,150.6549072935756L130.5,151.4437144478789L132.75,150.2130460979044L135,151.59923744707336L137.25,151.55800855642957L139.5,151.4259005477592L141.75,151.46746001383644L144,152.27027473775968L146.25,152.8503476657551L148.5,151.98016410513296L150.75,152.09677615215756L153,152.93807871934723L155.25,153.3429491046966L157.5,153.6762241722802L159.75,153.6423280037146L162,153.73354978294182L164.25,153.6839229835705L166.5,154.43888363315858L168.75,154.4800673047484L171,154.88816513628012L173.25,155.34664321564549L175.5,155.4176030338004L177.75,155.76067889298884L180,155.90545554948037L182.25,155.79097614950402L184.5,156.1594459441266L186.75,154.14818819450565L189,154.42588043662846L191.25,155.204622972839L193.5,154.7463399342613L195.75,155.55000394848278L198,156.09739139787365L200.25,156.38929082606748L202.5,155.75354530906205L204.75,156.33747143651138L207,155.98272856626497L209.25,154.86418272450416L211.5,155.80314316630532L213.75,156.30829497158564L216,156.00333349563374L218.25,156.16026021197678L220.5,155.831786153551L222.75,155.90350225188507L225,155.34874073576867L227.25,155.63325784677866L229.5,151.0574013021827L231.75,150.29472911853853L234,151.88111502214977L236.25,154.22787138270812L238.5,155.7915570563638L240.75,156.31260005498692L243,156.90502303474804L245.25,157.1724338472994" style="fill: none;" fill="none"></path></g><g><path stroke="rgb(255, 112, 67)" stroke-width="2px" d="M31.5,-28.213322310441324L33.75,19.609881166054258L36,52.348680056241754L38.25,77.29500338367149L40.5,94.74225569493436L42.75,106.68853273665411L45,115.70050015189975L47.25,122.23983208284741L49.5,127.38104276013803L51.75,132.86134252442753L54,136.02164683362017L56.25,138.134937734967L58.5,141.4219603204891L60.75,143.51299045537002L63,144.39994899521923L65.25,145.628739044006L67.5,146.92355067498394L69.75,148.79032045244497L72,149.59843720896058L74.25,150.07944258812034L76.5,151.73916962676702L78.75,152.4438215395322L81,153.44023406525434L83.25,154.4297965824032L85.5,154.5980291338315L87.75,155.34963171569834L90,155.81931468770122L92.25,154.7749591647875L94.5,154.79290679816708L96.75,155.56490521402947L99,155.93088371133706L101.25,156.5431211028234L103.5,157.14120717970624L105.75,157.9468433859846L108,158.12865880749618L110.25,157.77900518674616L112.5,157.80715925750116L114.75,158.1255507928371L117,158.58709836710963L119.25,158.81221066686183L121.5,159.24232740247012L123.75,159.5049147717878L126,159.37382285457065L128.25,159.11469843324429L130.5,159.67332383404397L132.75,159.28207677620918L135,159.15639968134536L137.25,159.8094633417856L139.5,160.2222003907871L141.75,158.92020575969704L144,159.1173965105592L146.25,159.44348949063894L148.5,159.07245483698716L150.75,158.70706699561262L153,159.6857449437151L155.25,159.63889554973198L157.5,159.22318921278912L159.75,159.70336629230587L162,159.81409920634013L164.25,159.80115232694465L166.5,159.8147146079896L168.75,159.89124647076758L171,159.88052906624787L173.25,160.7878494305155L175.5,161.4076652597925L177.75,161.63686481388353L180,161.8902695224069L182.25,161.98070285429762L184.5,161.72222574618107L186.75,160.98885339919553L189,160.0607862274617L191.25,159.13671465306965L193.5,160.29494526652329L195.75,161.0274471714388L198,161.61175860901218L200.25,161.87558390683589L202.5,161.92534872531115L204.75,161.996308046841L207,161.9967744693474L209.25,161.73175981109162L211.5,161.797614286413L213.75,161.93444891507556L216,161.84266895199525L218.25,161.63750984181095L220.5,161.76281736706588L222.75,161.70531302521073L225,160.80707576785534L227.25,160.29811922528538L229.5,159.52663745594347L231.75,156.74706078427255L234,156.7147864256717L236.25,157.95894068221335L238.5,159.47983033180455L240.75,160.63409847196075L243,161.58620707386424L245.25,161.96106924161074" style="fill: none;" fill="none"></path></g></g></g></g><g opacity="0.2"><g><g><g><path stroke="rgb(0, 119, 187)" stroke-width="2px" d="M27,-37.26888909510202L29.25,24.333217595304777L31.5,45.566229803221574L33.75,43.61665165211474L36,88.1991470913802L38.25,95.90332429749625L40.5,74.77231761600291L42.75,108.63625903640475L45,113.63391284325294L47.25,112.17602695098945L49.5,121.79967235667365L51.75,119.66032568258899L54,118.4450761697122L56.25,129.67613283704435L58.5,131.90935586871845L60.75,131.8843631488936L63,135.1645322266434L65.25,134.94199505235468L67.5,136.5262362988932L69.75,137.0107366453324L72,128.48874197634203L74.25,139.91503528079818L76.5,139.70968428094474L78.75,141.75923802118217L81,142.32502534613013L83.25,143.2258865545903L85.5,144.23087977830852L87.75,145.01310857837754L90,146.03964457048903L92.25,141.47564023892795L94.5,147.5159588551947L96.75,147.0552054781999L99,147.26281130979103L101.25,148.9588192081345L103.5,149.12786094099283L105.75,149.36027463153005L108,148.0816543384322L110.25,149.06640941702892L112.5,147.1815867365471L114.75,150.5936840764646L117,146.07707713225057L119.25,151.8417575811701L121.5,151.56894295769078L123.75,148.9863505270332L126,152.74145546129773L128.25,150.0543860202389L130.5,152.35859445189791L132.75,148.78568345441352L135,153.2069798974054L137.25,151.51019016706516L139.5,151.27267808413933L141.75,151.5156618135848L144,153.20140110222357L146.25,153.5231320336461L148.5,150.9709015305021L150.75,152.23202597775628L153,153.91384433183288L155.25,153.81252879569573L157.5,154.06276566535234L159.75,153.60301430496787L162,153.8393512849829L164.25,153.62636447112476L166.5,155.31450753991624L168.75,154.52783324782337L171,155.3614881071927L173.25,155.87839856903466L175.5,155.49990416198435L177.75,156.15858761088123L180,156.07337145560552L182.25,155.65819982598933L184.5,156.58680723940154L186.75,151.81547672248314L189,154.74795545611L191.25,156.10782975889742L193.5,154.21481079448546L195.75,156.48211534294697L198,156.73226625818225L200.25,156.727843726586L202.5,155.01619035737323L204.75,157.01472484998936L207,155.5712881314435L209.25,153.56686281732152L211.5,156.89217503940952L213.75,156.89418378246148L216,155.64963087665717L218.25,156.34226808816726L220.5,155.4508130015539L222.75,155.98668053440215L225,154.70531323219518L227.25,155.96324853492635L229.5,145.75019835521067L231.75,149.41016116472227L234,153.72104856478316L236.25,156.94970327389558L238.5,157.60516225453466L240.75,156.91691990436186L243,157.59213132876903L245.25,157.48258418496698" style="fill: none;" fill="none"></path></g><g><path stroke="rgb(255, 112, 67)" stroke-width="2px" d="M27,-100.29511689714022L29.25,2.4229128062725067L31.5,48.599361164229265L33.75,72.59966301492284L36,89.40948425020491L38.25,105.85584780360972L40.5,114.83812251154865L42.75,120.49269887911422L45,126.13198242442948L47.25,129.81620557499784L49.5,133.34052995273044L51.75,139.21558058847276L54,139.68644597328137L56.25,140.58577177673578L58.5,145.23415626851576L60.75,145.9381618353405L63,145.42865346212471L65.25,147.0539126295064L67.5,148.42530246983682L69.75,150.95544621907175L72,150.53571194037795L74.25,150.6373253733452L76.5,153.664165577186L78.75,153.26109585911036L81,154.59590031858534L83.25,155.5775180608034L85.5,154.7931498198637L87.75,156.22136083125534L90,156.36406577617993L92.25,153.5636872135635L94.5,154.81372295173685L96.75,156.46028998467537L99,156.35535553190857L101.25,157.25321069053774L103.5,157.83488368775164L105.75,158.8812421823719L108,158.33953328124647L110.25,157.37346740200053L112.5,157.8398131149422L114.75,158.4948299601674L117,159.12241380422245L119.25,159.07330203828005L121.5,159.74118849754868L123.75,159.80947074872842L126,159.22177888147002L128.25,158.81415887762395L130.5,160.32123277622406L132.75,158.82829779120428L135,159.01063596656812L137.25,160.56690434752298L139.5,160.70090405237195L141.75,157.41011695430745L144,159.34610370972325L146.25,159.82170100317205L148.5,158.64211874841047L150.75,158.28328023358648L153,160.82084226149266L155.25,159.58455834763924L157.5,158.7410416902442L159.75,160.26028873658342L162,159.94253025350292L164.25,159.78613618388772L166.5,159.830444510627L168.75,159.98001020794203L171,159.8680987288244L173.25,161.84018428064883L175.5,162.12654452614618L177.75,161.90269669411438L180,162.18417519946317L182.25,162.0855898936612L184.5,161.4224369620372L186.75,160.13826819329654L189,158.98438866542918L191.25,158.0649512935696L193.5,161.6382926518896L195.75,161.87702281493694L198,162.28945891565775L200.25,162.18157566694674L202.5,161.98306731606965L204.75,162.07860859902576L207,161.99731543886344L209.25,161.4243885983846L211.5,161.87399409904276L213.75,162.0931534411918L216,161.73622005313104L218.25,161.39956072265548L220.5,161.90815244495337L222.75,161.63861792461415L225,159.76527575230492L227.25,159.70781757655953L229.5,158.6318519048925L231.75,153.52323211756135L234,156.67735374625772L236.25,159.40194464714398L238.5,161.243799536622L240.75,161.97285007296261L243,162.6904885408668L245.25,162.39584458519573" style="fill: none;" fill="none"></path></g></g></g></g></g></g><g transform="translate(60, 177)" clip-path="url(#clip_1)"><clipPath id="clip_1"><rect width="270" height="23"></rect></clipPath><g><g><line x1="0" y1="0" x2="0" y2="5" style="visibility: inherit;" fill="rgb(0, 0, 0)" stroke="rgb(204, 204, 204)" stroke-width="1px"></line><line x1="22.5" y1="0" x2="22.5" y2="5" style="visibility: inherit;" fill="rgb(0, 0, 0)" stroke="rgb(204, 204, 204)" stroke-width="1px"></line><line x1="45" y1="0" x2="45" y2="5" style="visibility: inherit;" fill="rgb(0, 0, 0)" stroke="rgb(204, 204, 204)" stroke-width="1px"></line><line x1="67.5" y1="0" x2="67.5" y2="5" style="visibility: inherit;" fill="rgb(0, 0, 0)" stroke="rgb(204, 204, 204)" stroke-width="1px"></line><line x1="90" y1="0" x2="90" y2="5" style="visibility: inherit;" fill="rgb(0, 0, 0)" stroke="rgb(204, 204, 204)" stroke-width="1px"></line><line x1="112.5" y1="0" x2="112.5" y2="5" style="visibility: inherit;" fill="rgb(0, 0, 0)" stroke="rgb(204, 204, 204)" stroke-width="1px"></line><line x1="135" y1="0" x2="135" y2="5" style="visibility: inherit;" fill="rgb(0, 0, 0)" stroke="rgb(204, 204, 204)" stroke-width="1px"></line><line x1="157.5" y1="0" x2="157.5" y2="5" style="visibility: inherit;" fill="rgb(0, 0, 0)" stroke="rgb(204, 204, 204)" stroke-width="1px"></line><line x1="180" y1="0" x2="180" y2="5" style="visibility: inherit;" fill="rgb(0, 0, 0)" stroke="rgb(204, 204, 204)" stroke-width="1px"></line><line x1="202.5" y1="0" x2="202.5" y2="5" style="visibility: inherit;" fill="rgb(0, 0, 0)" stroke="rgb(204, 204, 204)" stroke-width="1px"></line><line x1="225" y1="0" x2="225" y2="5" style="visibility: inherit;" fill="rgb(0, 0, 0)" stroke="rgb(204, 204, 204)" stroke-width="1px"></line><line x1="247.5" y1="0" x2="247.5" y2="5" style="visibility: inherit;" fill="rgb(0, 0, 0)" stroke="rgb(204, 204, 204)" stroke-width="1px"></line><line x1="270" y1="0" x2="270" y2="5" style="visibility: inherit;" fill="rgb(0, 0, 0)" stroke="rgb(204, 204, 204)" stroke-width="1px"></line></g><g transform="translate(0, 8)"><text x="0" y="0" dx="0em" dy="0.95em" style="text-anchor: middle; visibility: hidden; font-family: Roboto, sans-serif; font-size: 12px; font-weight: 200;" fill="rgb(33, 33, 33)" stroke="none" stroke-width="1px">-10</text><text x="22.5" y="0" dx="0em" dy="0.95em" style="text-anchor: middle; visibility: inherit; font-family: Roboto, sans-serif; font-size: 12px; font-weight: 200;" fill="rgb(33, 33, 33)" stroke="none" stroke-width="1px">0</text><text x="45" y="0" dx="0em" dy="0.95em" style="text-anchor: middle; visibility: inherit; font-family: Roboto, sans-serif; font-size: 12px; font-weight: 200;" fill="rgb(33, 33, 33)" stroke="none" stroke-width="1px">10</text><text x="67.5" y="0" dx="0em" dy="0.95em" style="text-anchor: middle; visibility: inherit; font-family: Roboto, sans-serif; font-size: 12px; font-weight: 200;" fill="rgb(33, 33, 33)" stroke="none" stroke-width="1px">20</text><text x="90" y="0" dx="0em" dy="0.95em" style="text-anchor: middle; visibility: inherit; font-family: Roboto, sans-serif; font-size: 12px; font-weight: 200;" fill="rgb(33, 33, 33)" stroke="none" stroke-width="1px">30</text><text x="112.5" y="0" dx="0em" dy="0.95em" style="text-anchor: middle; visibility: inherit; font-family: Roboto, sans-serif; font-size: 12px; font-weight: 200;" fill="rgb(33, 33, 33)" stroke="none" stroke-width="1px">40</text><text x="135" y="0" dx="0em" dy="0.95em" style="text-anchor: middle; visibility: inherit; font-family: Roboto, sans-serif; font-size: 12px; font-weight: 200;" fill="rgb(33, 33, 33)" stroke="none" stroke-width="1px">50</text><text x="157.5" y="0" dx="0em" dy="0.95em" style="text-anchor: middle; visibility: inherit; font-family: Roboto, sans-serif; font-size: 12px; font-weight: 200;" fill="rgb(33, 33, 33)" stroke="none" stroke-width="1px">60</text><text x="180" y="0" dx="0em" dy="0.95em" style="text-anchor: middle; visibility: inherit; font-family: Roboto, sans-serif; font-size: 12px; font-weight: 200;" fill="rgb(33, 33, 33)" stroke="none" stroke-width="1px">70</text><text x="202.5" y="0" dx="0em" dy="0.95em" style="text-anchor: middle; visibility: inherit; font-family: Roboto, sans-serif; font-size: 12px; font-weight: 200;" fill="rgb(33, 33, 33)" stroke="none" stroke-width="1px">80</text><text x="225" y="0" dx="0em" dy="0.95em" style="text-anchor: middle; visibility: inherit; font-family: Roboto, sans-serif; font-size: 12px; font-weight: 200;" fill="rgb(33, 33, 33)" stroke="none" stroke-width="1px">90</text><text x="247.5" y="0" dx="0em" dy="0.95em" style="text-anchor: middle; visibility: inherit; font-family: Roboto, sans-serif; font-size: 12px; font-weight: 200;" fill="rgb(33, 33, 33)" stroke="none" stroke-width="1px">100</text><text x="270" y="0" dx="0em" dy="0.95em" style="text-anchor: middle; visibility: hidden; font-family: Roboto, sans-serif; font-size: 12px; font-weight: 200;" fill="rgb(33, 33, 33)" stroke="none" stroke-width="1px">110</text></g><line x1="0" y1="0" x2="270" y2="0" fill="rgb(0, 0, 0)" stroke="rgb(204, 204, 204)" stroke-width="1px"></line></g></g></g></g></svg>